<?xml version="1.0" encoding="UTF-8"?>
<svg xmlns="http://www.w3.org/2000/svg" xmlns:xlink="http://www.w3.org/1999/xlink" width="13pt" height="13pt" viewBox="0 0 13 13" version="1.1">
<g id="surface1">
<path style=" stroke:none;fill-rule:nonzero;fill:rgb(0%,0%,0%);fill-opacity:1;" d="M 5.96875 1.765625 C 4.265625 1.957031 2.808594 2.984375 2.078125 4.511719 C 0.945312 6.875 1.910156 9.695312 4.261719 10.890625 C 4.402344 10.964844 4.621094 11.058594 4.746094 11.109375 C 5.015625 11.207031 5.128906 11.207031 5.214844 11.109375 C 5.265625 11.050781 5.269531 11.03125 5.269531 10.546875 L 5.269531 10.046875 L 5.207031 10.0625 C 5.167969 10.070312 5.007812 10.082031 4.839844 10.089844 C 4.488281 10.105469 4.300781 10.074219 4.078125 9.953125 C 3.859375 9.835938 3.738281 9.695312 3.589844 9.398438 C 3.449219 9.105469 3.328125 8.945312 3.148438 8.816406 C 2.890625 8.621094 2.84375 8.539062 2.964844 8.492188 C 3.214844 8.398438 3.640625 8.625 3.863281 8.976562 C 4.109375 9.359375 4.398438 9.511719 4.804688 9.488281 C 5.054688 9.472656 5.292969 9.394531 5.292969 9.328125 C 5.292969 9.238281 5.394531 8.992188 5.480469 8.863281 C 5.585938 8.710938 5.613281 8.734375 5.25 8.671875 C 4.097656 8.472656 3.503906 7.839844 3.386719 6.679688 C 3.328125 6.074219 3.441406 5.59375 3.753906 5.175781 L 3.863281 5.027344 L 3.824219 4.875 C 3.75 4.582031 3.789062 4.050781 3.90625 3.796875 C 3.933594 3.734375 3.9375 3.734375 4.085938 3.746094 C 4.363281 3.769531 4.78125 3.933594 5.140625 4.164062 L 5.261719 4.242188 L 5.515625 4.1875 C 6.15625 4.054688 6.820312 4.054688 7.460938 4.1875 L 7.714844 4.242188 L 7.835938 4.164062 C 8.199219 3.933594 8.613281 3.769531 8.894531 3.746094 L 9.050781 3.730469 L 9.113281 3.925781 C 9.199219 4.191406 9.21875 4.621094 9.152344 4.867188 L 9.109375 5.03125 L 9.222656 5.175781 C 9.605469 5.683594 9.703125 6.382812 9.507812 7.164062 C 9.285156 8.035156 8.652344 8.546875 7.609375 8.6875 C 7.496094 8.703125 7.40625 8.722656 7.40625 8.730469 C 7.40625 8.738281 7.429688 8.777344 7.460938 8.816406 C 7.550781 8.921875 7.632812 9.105469 7.671875 9.292969 C 7.699219 9.433594 7.707031 9.628906 7.707031 10.257812 C 7.707031 11.042969 7.707031 11.046875 7.761719 11.109375 C 7.847656 11.207031 7.960938 11.207031 8.230469 11.109375 C 10.882812 10.117188 12.121094 7.058594 10.898438 4.511719 C 10.210938 3.074219 8.890625 2.085938 7.300781 1.808594 C 6.976562 1.753906 6.28125 1.730469 5.96875 1.765625 Z M 5.96875 1.765625 "/>
</g>
</svg>
